<mxfile host="app.diagrams.net" modified="2023-11-20T07:30:40.375Z" agent="Mozilla/5.0 (Windows NT 10.0; Win64; x64) AppleWebKit/537.36 (KHTML, like Gecko) Chrome/119.0.0.0 Safari/537.36" etag="4Khpf4vMolVEasefBTpP" version="22.1.3" type="device">
  <diagram name="Page-1" id="eEIRysz6c0_ty_cyWSry">
    <mxGraphModel dx="1046" dy="615" grid="1" gridSize="10" guides="1" tooltips="1" connect="1" arrows="1" fold="1" page="1" pageScale="1" pageWidth="850" pageHeight="1100" math="0" shadow="0">
      <root>
        <mxCell id="0" />
        <mxCell id="1" parent="0" />
        <mxCell id="1E4B5FlA0SBtE3Ibjyd2-9" value="" style="edgeStyle=orthogonalEdgeStyle;rounded=0;orthogonalLoop=1;jettySize=auto;html=1;" edge="1" parent="1" source="1E4B5FlA0SBtE3Ibjyd2-5" target="1E4B5FlA0SBtE3Ibjyd2-8">
          <mxGeometry relative="1" as="geometry" />
        </mxCell>
        <mxCell id="1E4B5FlA0SBtE3Ibjyd2-11" value="" style="edgeStyle=orthogonalEdgeStyle;rounded=0;orthogonalLoop=1;jettySize=auto;html=1;" edge="1" parent="1" source="1E4B5FlA0SBtE3Ibjyd2-5" target="1E4B5FlA0SBtE3Ibjyd2-10">
          <mxGeometry relative="1" as="geometry" />
        </mxCell>
        <mxCell id="1E4B5FlA0SBtE3Ibjyd2-13" value="" style="edgeStyle=orthogonalEdgeStyle;rounded=0;orthogonalLoop=1;jettySize=auto;html=1;" edge="1" parent="1" source="1E4B5FlA0SBtE3Ibjyd2-5" target="1E4B5FlA0SBtE3Ibjyd2-12">
          <mxGeometry relative="1" as="geometry" />
        </mxCell>
        <mxCell id="1E4B5FlA0SBtE3Ibjyd2-15" value="" style="edgeStyle=orthogonalEdgeStyle;rounded=0;orthogonalLoop=1;jettySize=auto;html=1;" edge="1" parent="1" source="1E4B5FlA0SBtE3Ibjyd2-5" target="1E4B5FlA0SBtE3Ibjyd2-14">
          <mxGeometry relative="1" as="geometry" />
        </mxCell>
        <mxCell id="1E4B5FlA0SBtE3Ibjyd2-26" style="edgeStyle=orthogonalEdgeStyle;rounded=0;orthogonalLoop=1;jettySize=auto;html=1;exitX=1;exitY=0;exitDx=0;exitDy=0;entryX=0.5;entryY=1;entryDx=0;entryDy=0;" edge="1" parent="1" source="1E4B5FlA0SBtE3Ibjyd2-5" target="1E4B5FlA0SBtE3Ibjyd2-25">
          <mxGeometry relative="1" as="geometry">
            <Array as="points">
              <mxPoint x="505" y="560" />
            </Array>
          </mxGeometry>
        </mxCell>
        <mxCell id="1E4B5FlA0SBtE3Ibjyd2-35" style="edgeStyle=orthogonalEdgeStyle;rounded=0;orthogonalLoop=1;jettySize=auto;html=1;exitX=0;exitY=0;exitDx=0;exitDy=0;entryX=0.5;entryY=1;entryDx=0;entryDy=0;" edge="1" parent="1" source="1E4B5FlA0SBtE3Ibjyd2-5" target="1E4B5FlA0SBtE3Ibjyd2-32">
          <mxGeometry relative="1" as="geometry">
            <Array as="points">
              <mxPoint x="305" y="560" />
            </Array>
          </mxGeometry>
        </mxCell>
        <mxCell id="1E4B5FlA0SBtE3Ibjyd2-37" style="edgeStyle=orthogonalEdgeStyle;rounded=0;orthogonalLoop=1;jettySize=auto;html=1;exitX=0;exitY=0.25;exitDx=0;exitDy=0;" edge="1" parent="1" source="1E4B5FlA0SBtE3Ibjyd2-5" target="1E4B5FlA0SBtE3Ibjyd2-36">
          <mxGeometry relative="1" as="geometry" />
        </mxCell>
        <mxCell id="1E4B5FlA0SBtE3Ibjyd2-42" style="edgeStyle=orthogonalEdgeStyle;rounded=0;orthogonalLoop=1;jettySize=auto;html=1;exitX=1;exitY=0.75;exitDx=0;exitDy=0;entryX=0.5;entryY=0;entryDx=0;entryDy=0;" edge="1" parent="1" source="1E4B5FlA0SBtE3Ibjyd2-5" target="1E4B5FlA0SBtE3Ibjyd2-38">
          <mxGeometry relative="1" as="geometry" />
        </mxCell>
        <mxCell id="1E4B5FlA0SBtE3Ibjyd2-43" style="edgeStyle=orthogonalEdgeStyle;rounded=0;orthogonalLoop=1;jettySize=auto;html=1;exitX=1;exitY=1;exitDx=0;exitDy=0;entryX=0.5;entryY=0;entryDx=0;entryDy=0;" edge="1" parent="1" source="1E4B5FlA0SBtE3Ibjyd2-5" target="1E4B5FlA0SBtE3Ibjyd2-39">
          <mxGeometry relative="1" as="geometry">
            <Array as="points">
              <mxPoint x="495" y="640" />
            </Array>
          </mxGeometry>
        </mxCell>
        <mxCell id="1E4B5FlA0SBtE3Ibjyd2-44" style="edgeStyle=orthogonalEdgeStyle;rounded=0;orthogonalLoop=1;jettySize=auto;html=1;exitX=0;exitY=1;exitDx=0;exitDy=0;entryX=0.5;entryY=0;entryDx=0;entryDy=0;" edge="1" parent="1" source="1E4B5FlA0SBtE3Ibjyd2-5" target="1E4B5FlA0SBtE3Ibjyd2-40">
          <mxGeometry relative="1" as="geometry">
            <Array as="points">
              <mxPoint x="305" y="640" />
            </Array>
          </mxGeometry>
        </mxCell>
        <mxCell id="1E4B5FlA0SBtE3Ibjyd2-45" style="edgeStyle=orthogonalEdgeStyle;rounded=0;orthogonalLoop=1;jettySize=auto;html=1;exitX=0;exitY=0.75;exitDx=0;exitDy=0;entryX=0.5;entryY=0;entryDx=0;entryDy=0;" edge="1" parent="1" source="1E4B5FlA0SBtE3Ibjyd2-5" target="1E4B5FlA0SBtE3Ibjyd2-41">
          <mxGeometry relative="1" as="geometry" />
        </mxCell>
        <mxCell id="1E4B5FlA0SBtE3Ibjyd2-49" style="edgeStyle=orthogonalEdgeStyle;rounded=0;orthogonalLoop=1;jettySize=auto;html=1;exitX=0.75;exitY=1;exitDx=0;exitDy=0;entryX=0.5;entryY=0;entryDx=0;entryDy=0;" edge="1" parent="1" source="1E4B5FlA0SBtE3Ibjyd2-5" target="1E4B5FlA0SBtE3Ibjyd2-48">
          <mxGeometry relative="1" as="geometry" />
        </mxCell>
        <mxCell id="1E4B5FlA0SBtE3Ibjyd2-5" value="match" style="whiteSpace=wrap;html=1;aspect=fixed;" vertex="1" parent="1">
          <mxGeometry x="370" y="560" width="80" height="80" as="geometry" />
        </mxCell>
        <mxCell id="1E4B5FlA0SBtE3Ibjyd2-17" value="" style="edgeStyle=orthogonalEdgeStyle;rounded=0;orthogonalLoop=1;jettySize=auto;html=1;" edge="1" parent="1" source="1E4B5FlA0SBtE3Ibjyd2-8" target="1E4B5FlA0SBtE3Ibjyd2-16">
          <mxGeometry relative="1" as="geometry" />
        </mxCell>
        <mxCell id="1E4B5FlA0SBtE3Ibjyd2-8" value="" style="rhombus;whiteSpace=wrap;html=1;" vertex="1" parent="1">
          <mxGeometry x="580" y="690" width="80" height="80" as="geometry" />
        </mxCell>
        <mxCell id="1E4B5FlA0SBtE3Ibjyd2-21" value="" style="edgeStyle=orthogonalEdgeStyle;rounded=0;orthogonalLoop=1;jettySize=auto;html=1;" edge="1" parent="1" source="1E4B5FlA0SBtE3Ibjyd2-10" target="1E4B5FlA0SBtE3Ibjyd2-20">
          <mxGeometry relative="1" as="geometry" />
        </mxCell>
        <mxCell id="1E4B5FlA0SBtE3Ibjyd2-10" value="" style="rhombus;whiteSpace=wrap;html=1;" vertex="1" parent="1">
          <mxGeometry x="140" y="700" width="80" height="80" as="geometry" />
        </mxCell>
        <mxCell id="1E4B5FlA0SBtE3Ibjyd2-24" value="" style="edgeStyle=orthogonalEdgeStyle;rounded=0;orthogonalLoop=1;jettySize=auto;html=1;" edge="1" parent="1" source="1E4B5FlA0SBtE3Ibjyd2-12" target="1E4B5FlA0SBtE3Ibjyd2-23">
          <mxGeometry relative="1" as="geometry" />
        </mxCell>
        <mxCell id="1E4B5FlA0SBtE3Ibjyd2-12" value="" style="rhombus;whiteSpace=wrap;html=1;" vertex="1" parent="1">
          <mxGeometry x="370" y="400" width="80" height="80" as="geometry" />
        </mxCell>
        <mxCell id="1E4B5FlA0SBtE3Ibjyd2-19" value="" style="edgeStyle=orthogonalEdgeStyle;rounded=0;orthogonalLoop=1;jettySize=auto;html=1;" edge="1" parent="1" source="1E4B5FlA0SBtE3Ibjyd2-14" target="1E4B5FlA0SBtE3Ibjyd2-18">
          <mxGeometry relative="1" as="geometry" />
        </mxCell>
        <mxCell id="1E4B5FlA0SBtE3Ibjyd2-14" value="" style="rhombus;whiteSpace=wrap;html=1;" vertex="1" parent="1">
          <mxGeometry x="370" y="700" width="80" height="80" as="geometry" />
        </mxCell>
        <mxCell id="1E4B5FlA0SBtE3Ibjyd2-16" value="mdepo" style="whiteSpace=wrap;html=1;" vertex="1" parent="1">
          <mxGeometry x="560" y="800" width="120" height="60" as="geometry" />
        </mxCell>
        <mxCell id="1E4B5FlA0SBtE3Ibjyd2-18" value="mexpe" style="rounded=1;whiteSpace=wrap;html=1;" vertex="1" parent="1">
          <mxGeometry x="350" y="800" width="120" height="60" as="geometry" />
        </mxCell>
        <mxCell id="1E4B5FlA0SBtE3Ibjyd2-20" value="mcons" style="whiteSpace=wrap;html=1;" vertex="1" parent="1">
          <mxGeometry x="120" y="800" width="120" height="60" as="geometry" />
        </mxCell>
        <mxCell id="1E4B5FlA0SBtE3Ibjyd2-23" value="mborders" style="whiteSpace=wrap;html=1;" vertex="1" parent="1">
          <mxGeometry x="350" y="250" width="120" height="60" as="geometry" />
        </mxCell>
        <mxCell id="1E4B5FlA0SBtE3Ibjyd2-25" value="mid" style="ellipse;whiteSpace=wrap;html=1;" vertex="1" parent="1">
          <mxGeometry x="484" y="515" width="50" height="30" as="geometry" />
        </mxCell>
        <mxCell id="1E4B5FlA0SBtE3Ibjyd2-29" value="mnam" style="ellipse;whiteSpace=wrap;html=1;" vertex="1" parent="1">
          <mxGeometry x="540" y="516" width="50" height="30" as="geometry" />
        </mxCell>
        <mxCell id="1E4B5FlA0SBtE3Ibjyd2-31" style="edgeStyle=orthogonalEdgeStyle;rounded=0;orthogonalLoop=1;jettySize=auto;html=1;exitX=1;exitY=0.25;exitDx=0;exitDy=0;entryX=0.6;entryY=0.667;entryDx=0;entryDy=0;entryPerimeter=0;" edge="1" parent="1" source="1E4B5FlA0SBtE3Ibjyd2-5" target="1E4B5FlA0SBtE3Ibjyd2-29">
          <mxGeometry relative="1" as="geometry" />
        </mxCell>
        <mxCell id="1E4B5FlA0SBtE3Ibjyd2-32" value="tbor" style="ellipse;whiteSpace=wrap;html=1;" vertex="1" parent="1">
          <mxGeometry x="280" y="510" width="50" height="30" as="geometry" />
        </mxCell>
        <mxCell id="1E4B5FlA0SBtE3Ibjyd2-36" value="tdep" style="ellipse;whiteSpace=wrap;html=1;" vertex="1" parent="1">
          <mxGeometry x="220" y="510" width="50" height="30" as="geometry" />
        </mxCell>
        <mxCell id="1E4B5FlA0SBtE3Ibjyd2-38" value="trem" style="ellipse;whiteSpace=wrap;html=1;" vertex="1" parent="1">
          <mxGeometry x="528" y="660" width="50" height="30" as="geometry" />
        </mxCell>
        <mxCell id="1E4B5FlA0SBtE3Ibjyd2-39" value="trat" style="ellipse;whiteSpace=wrap;html=1;" vertex="1" parent="1">
          <mxGeometry x="475" y="660" width="50" height="30" as="geometry" />
        </mxCell>
        <mxCell id="1E4B5FlA0SBtE3Ibjyd2-40" value="tmel" style="ellipse;whiteSpace=wrap;html=1;" vertex="1" parent="1">
          <mxGeometry x="275" y="654" width="50" height="30" as="geometry" />
        </mxCell>
        <mxCell id="1E4B5FlA0SBtE3Ibjyd2-41" value="texp" style="ellipse;whiteSpace=wrap;html=1;" vertex="1" parent="1">
          <mxGeometry x="220" y="654" width="50" height="30" as="geometry" />
        </mxCell>
        <mxCell id="1E4B5FlA0SBtE3Ibjyd2-46" style="edgeStyle=orthogonalEdgeStyle;rounded=0;orthogonalLoop=1;jettySize=auto;html=1;exitX=0.5;exitY=1;exitDx=0;exitDy=0;" edge="1" parent="1" source="1E4B5FlA0SBtE3Ibjyd2-32" target="1E4B5FlA0SBtE3Ibjyd2-32">
          <mxGeometry relative="1" as="geometry" />
        </mxCell>
        <mxCell id="1E4B5FlA0SBtE3Ibjyd2-48" value="tcon" style="ellipse;whiteSpace=wrap;html=1;" vertex="1" parent="1">
          <mxGeometry x="420" y="660" width="50" height="30" as="geometry" />
        </mxCell>
      </root>
    </mxGraphModel>
  </diagram>
</mxfile>
